# xmcd
#
# Track frame offsets: 
#        150
#        4995
#        26227
#        48945
#        77192
#        102310
#        128305
#        150605
#        178240
#        211667
#
# Disc length: 3086 seconds
#
# Revision: 0
# Processed by: cddbd v1.5.1PL0 Copyright (c) Steve Scherf et al.
# Submitted via: ExactAudioCopy v0.95a5
#
DISCID=780c0c0a
DTITLE=dj Dream feat. Apache Indian - Dreams Can Come True
DYEAR=1998
DGENRE=Club
TTITLE0=Intro (feat. Apache Indian)
TTITLE1=Chok There (Dream Mix '99)
TTITLE2=Rang Barse
TTITLE3=Dil Yeh Dil
TTITLE4=Hey Jamalo
TTITLE5=Hum Tumse
TTITLE6=Laila 'O Laila
TTITLE7=dj Dream vs. Apache Indian
TTITLE8=Tu Tu Tu
TTITLE9=Ckok There (Soldier Mix)
EXTD=
EXTT0=
EXTT1=
EXTT2=
EXTT3=
EXTT4=
EXTT5=
EXTT6=
EXTT7=
EXTT8=
EXTT9=
PLAYORDER=
